Units are S.I. units (second, meters, Newtons, ...)
Angles are in degrees.
name squat
datarows 67
datacolumns 19
range 1.15288 1.81454
endheader
time	exo_pelvis_tx	exo_pelvis_ty	exo_pelvis_tilt	exo_hip_r	exo_hip_l	exo_knee_r	exo_knee_l	r_ankle_coupling	l_ankle_coupling	planar_xdot	planar_zdot	planar_rotydot	exo_hip_rdot	exo_hip_ldot	exo_knee_rdot	exo_knee_ldot	r_ankle_couplingdot	l_ankle_couplingdot	
1.15288	-0.374136	0.8597	0.374469	5.13379	5.13379	-33.2552	-33.2552	27.7471	27.7471	-4.31849	-4.66579	1.79356	23.5428	23.5428	-48.4874	-48.4874	23.1316	23.1316	
1.16291	-0.374947	0.858879	0.384386	5.38861	5.38861	-33.7556	-33.7556	27.9828	27.9828	-4.58504	-4.76144	1.60612	24.5215	24.5215	-49.4863	-49.4863	23.3425	23.3425	
1.17293	-0.375799	0.85804	0.393435	5.6513	5.6513	-34.2648	-34.2648	28.2202	28.2202	-4.8601	-4.8574	1.38105	25.5824	25.5824	-50.5579	-50.5579	23.5821	23.5821	
1.18296	-0.376694	0.857184	0.401533	5.92212	5.92212	-34.7831	-34.7831	28.4596	28.4596	-5.14411	-4.95355	1.1165	26.7291	26.7291	-51.7046	-51.7046	23.8508	23.8508	
1.19298	-0.377631	0.85631	0.408599	6.20132	6.20132	-35.3109	-35.3109	28.7011	28.7011	-5.43753	-5.04976	0.810665	27.965	27.965	-52.9285	-52.9285	24.1493	24.1493	
1.20301	-0.378611	0.855419	0.414427	6.48932	6.48932	-35.8486	-35.8486	28.945	28.945	-5.73975	-5.14605	0.464498	29.2863	29.2863	-54.2244	-54.2244	24.4752	24.4752	
1.21303	-0.379638	0.854507	0.417052	6.78881	6.78881	-36.3967	-36.3967	29.191	29.191	-6.03417	-5.2447	0.120561	30.5785	30.5785	-55.4779	-55.4779	24.7852	24.7852	
1.22306	-0.380712	0.853575	0.415994	7.1002	7.1002	-36.9549	-36.9549	29.4389	29.4389	-6.31516	-5.34643	-0.205936	31.8021	31.8022	-56.6505	-56.6505	25.0649	25.0649	
1.23308	-0.381831	0.852622	0.411481	7.42294	7.42294	-37.5228	-37.5228	29.6886	29.6886	-6.58291	-5.45113	-0.514727	32.9578	32.9578	-57.7439	-57.7439	25.3153	25.3153	
1.24311	-0.382993	0.851649	0.403737	7.75644	7.75644	-38.0999	-38.0999	29.9399	29.9399	-6.83763	-5.5587	-0.805544	34.0461	34.0461	-58.7599	-58.7599	25.5372	25.5372	
1.25313	-0.384196	0.850655	0.392991	8.10014	8.10014	-38.6857	-38.6857	30.1927	30.1927	-7.0795	-5.66903	-1.07812	35.0677	35.0677	-59.7002	-59.7002	25.7314	25.7314	
1.26316	-0.38544	0.849639	0.379468	8.45347	8.45347	-39.2796	-39.2796	30.4468	30.4468	-7.30874	-5.78202	-1.33219	36.0232	36.0232	-60.5666	-60.5666	25.8988	25.8988	
1.27318	-0.386722	0.848603	0.363396	8.81586	8.81586	-39.8814	-39.8814	30.7023	30.7023	-7.52552	-5.89757	-1.56748	36.9132	36.9132	-61.3607	-61.3607	26.0403	26.0403	
1.28321	-0.388041	0.847545	0.345	9.18674	9.18674	-40.4903	-40.4903	30.9588	30.9588	-7.73006	-6.01557	-1.78374	37.7383	37.7383	-62.0844	-62.0844	26.1567	26.1567	
1.29323	-0.389394	0.846465	0.324507	9.56553	9.56553	-41.1061	-41.1061	31.2162	31.2162	-7.92255	-6.13591	-1.98068	38.4991	38.4991	-62.7392	-62.7392	26.249	26.249	
1.30326	-0.39078	0.845364	0.302144	9.95168	9.95168	-41.7282	-41.7282	31.4745	31.4745	-8.10319	-6.2585	-2.15805	39.1964	39.1964	-63.3271	-63.3271	26.3179	26.3179	
1.31328	-0.392198	0.844242	0.278138	10.3446	10.3446	-42.3561	-42.3561	31.7335	31.7335	-8.27218	-6.38322	-2.31557	39.8306	39.8306	-63.8496	-63.8496	26.3644	26.3644	
1.32331	-0.393645	0.843097	0.252715	10.7437	10.7437	-42.9893	-42.9893	31.993	31.993	-8.4297	-6.50997	-2.45299	40.4024	40.4024	-64.3086	-64.3086	26.3893	26.3893	
1.33333	-0.39512	0.84193	0.226101	11.1485	11.1485	-43.6274	-43.6274	32.253	32.253	-8.57597	-6.63865	-2.57003	40.9125	40.9125	-64.7058	-64.7058	26.3935	26.3935	
1.34336	-0.396622	0.840741	0.198523	11.5583	11.5583	-44.27	-44.27	32.5132	32.5132	-8.71117	-6.76915	-2.66642	41.3614	41.3614	-65.0429	-65.0429	26.3779	26.3779	
1.35338	-0.398147	0.83953	0.170208	11.9727	11.9727	-44.9164	-44.9164	32.7736	32.7736	-8.83551	-6.90136	-2.74191	41.7498	41.7498	-65.3216	-65.3216	26.3432	26.3432	
1.36341	-0.399696	0.838296	0.141383	12.3909	12.3909	-45.5662	-45.5662	33.034	33.034	-8.94918	-7.0352	-2.79621	42.0782	42.0782	-65.5437	-65.5437	26.2905	26.2905	
1.37343	-0.401266	0.83704	0.112273	12.8126	12.8126	-46.219	-46.219	33.2943	33.2943	-9.05238	-7.17053	-2.82907	42.3474	42.3474	-65.7109	-65.7109	26.2205	26.2205	
1.38346	-0.402855	0.83576	0.0831049	13.237	13.237	-46.8743	-46.8743	33.5544	33.5544	-9.14531	-7.30728	-2.84022	42.5579	42.5579	-65.8249	-65.8249	26.1341	26.1341	
1.39348	-0.404462	0.834458	0.0541062	13.6636	13.6636	-47.5316	-47.5316	33.814	33.814	-9.22816	-7.44532	-2.82939	42.7104	42.7104	-65.8875	-65.8875	26.0322	26.0322	
1.40351	-0.406084	0.833133	0.025503	14.0919	14.0919	-48.1904	-48.1904	34.0731	34.0731	-9.30113	-7.58455	-2.79631	42.8054	42.8054	-65.9004	-65.9004	25.9156	25.9156	
1.41353	-0.407721	0.831784	-0.00247818	14.5213	14.5213	-48.8502	-48.8502	34.3316	34.3316	-9.36443	-7.72488	-2.74072	42.8436	42.8436	-65.8654	-65.8654	25.7853	25.7853	
1.42356	-0.40937	0.830413	-0.0296107	14.9512	14.9512	-49.5106	-49.5106	34.5892	34.5892	-9.41824	-7.86619	-2.66235	42.8257	42.8257	-65.7841	-65.7841	25.6421	25.6421	
1.43358	-0.411031	0.829017	-0.0556681	15.381	15.381	-50.1711	-50.1711	34.846	34.846	-9.46277	-8.00837	-2.56093	42.7521	42.7521	-65.6583	-65.6583	25.4868	25.4868	
1.44361	-0.4127	0.827598	-0.0804238	15.8101	15.8101	-50.8312	-50.8312	35.1016	35.1016	-9.49821	-8.15134	-2.4362	42.6236	42.6236	-65.4898	-65.4898	25.3203	25.3203	
1.45363	-0.414376	0.826155	-0.103651	16.2381	16.2381	-51.4904	-51.4904	35.3561	35.3561	-9.52477	-8.29497	-2.28789	42.4408	42.4408	-65.2803	-65.2803	25.1435	25.1435	
1.46366	-0.416058	0.824688	-0.125124	16.6643	16.6643	-52.1483	-52.1483	35.6092	35.6092	-9.54263	-8.43917	-2.11573	42.2043	42.2043	-65.0314	-65.0314	24.9572	24.9572	
1.47368	-0.417744	0.823197	-0.144615	17.0882	17.0882	-52.8043	-52.8043	35.8609	35.8609	-9.55199	-8.58384	-1.91945	41.9147	41.9147	-64.745	-64.745	24.7624	24.7624	
1.48371	-0.419433	0.821682	-0.161898	17.5092	17.5092	-53.458	-53.458	36.1109	36.1109	-9.55306	-8.72886	-1.69879	41.5726	41.5726	-64.4227	-64.4227	24.5599	24.5599	
1.49373	-0.421121	0.820143	-0.176746	17.9267	17.9267	-54.109	-54.109	36.3592	36.3592	-9.54603	-8.87413	-1.45348	41.1787	41.1787	-64.0664	-64.0664	24.3505	24.3505	
1.50376	-0.422809	0.818579	-0.188934	18.3401	18.3401	-54.7567	-54.7567	36.6056	36.6056	-9.53109	-9.01954	-1.18325	40.7335	40.7335	-63.6777	-63.6777	24.1351	24.1351	
1.51378	-0.424493	0.81699	-0.198233	18.7489	18.7489	-55.4006	-55.4006	36.8501	36.8501	-9.50845	-9.16501	-0.887845	40.2378	40.2378	-63.2584	-63.2584	23.9147	23.9147	
1.52381	-0.426173	0.815376	-0.204419	19.1525	19.1525	-56.0403	-56.0403	37.0923	37.0923	-9.47831	-9.3104	-0.566985	39.692	39.692	-62.8101	-62.8101	23.6899	23.6899	
1.53383	-0.427847	0.813737	-0.207263	19.5504	19.5504	-56.6753	-56.6753	37.3323	37.3323	-9.44085	-9.45564	-0.220407	39.0969	39.0969	-62.3348	-62.3348	23.4618	23.4618	
1.54386	-0.429512	0.812074	-0.206541	19.9419	19.9419	-57.3051	-57.3051	37.5699	37.5699	-9.39629	-9.6006	0.152155	38.453	38.453	-61.8339	-61.8339	23.2312	23.2312	
1.55388	-0.431168	0.810385	-0.202024	20.3266	20.3266	-57.9293	-57.9293	37.8049	37.8049	-9.3448	-9.74518	0.55097	37.761	37.761	-61.3094	-61.3094	22.9989	22.9989	
1.56391	-0.432812	0.80867	-0.193487	20.7037	20.7037	-58.5473	-58.5473	38.0372	38.0372	-9.2866	-9.88928	0.976303	37.0215	37.0215	-60.763	-60.763	22.7659	22.7659	
1.57393	-0.434443	0.80693	-0.180703	21.0729	21.0729	-59.1587	-59.1587	38.2667	38.2667	-9.22189	-10.0328	1.42842	36.2351	36.2351	-60.1963	-60.1963	22.5329	22.5329	
1.58396	-0.436059	0.805165	-0.163445	21.4334	21.4334	-59.763	-59.763	38.4932	38.4932	-9.15084	-10.1756	1.90759	35.4025	35.4025	-59.6111	-59.6111	22.3009	22.3009	
1.59398	-0.437658	0.803373	-0.141487	21.7847	21.7847	-60.3597	-60.3597	38.7167	38.7167	-9.07368	-10.3177	2.41409	34.5242	34.5242	-59.0091	-59.0091	22.0707	22.0707	
1.60401	-0.439241	0.801555	-0.11519	22.1275	22.1275	-60.9494	-60.9494	38.9372	38.9372	-8.99108	-10.4573	2.93667	33.6164	33.6164	-58.3976	-58.3976	21.8446	21.8446	
1.61404	-0.440823	0.79971	-0.0898172	22.4724	22.4724	-61.5404	-61.5404	39.158	39.158	-8.90754	-10.5803	3.37132	32.8199	32.8199	-57.8259	-57.8259	21.635	21.635	
1.62406	-0.442407	0.797841	-0.0666035	22.8213	22.8213	-62.134	-62.134	39.3794	39.3794	-8.82366	-10.6833	3.6983	32.1593	32.1593	-57.2995	-57.2995	21.4425	21.4425	
1.63409	-0.44399	0.79595	-0.0454693	23.1737	23.1737	-62.7293	-62.7293	39.6012	39.6012	-8.73885	-10.7662	3.92411	31.6235	31.6235	-56.8111	-56.8111	21.2642	21.2642	
1.64411	-0.44557	0.794043	-0.0263355	23.5289	23.5289	-63.3254	-63.3254	39.823	39.823	-8.65255	-10.8291	4.05525	31.2014	31.2014	-56.3532	-56.3532	21.0974	21.0974	
1.65414	-0.447145	0.792123	-0.0091224	23.8861	23.8861	-63.9212	-63.9212	40.0444	40.0444	-8.56419	-10.8719	4.09821	30.8819	30.8819	-55.9184	-55.9184	20.9393	20.9393	
1.66416	-0.448712	0.790193	0.0062492	24.2446	24.2446	-64.5159	-64.5159	40.2652	40.2652	-8.47319	-10.8947	4.05949	30.6539	30.6539	-55.4993	-55.4993	20.7871	20.7871	
1.67419	-0.45027	0.788258	0.0198588	24.6039	24.6039	-65.1086	-65.1086	40.485	40.485	-8.37899	-10.8974	3.94559	30.5064	30.5064	-55.0886	-55.0886	20.638	20.638	
1.68421	-0.451816	0.786321	0.0317857	24.9632	24.9632	-65.6983	-65.6983	40.7035	40.7035	-8.28102	-10.88	3.76302	30.4281	30.4281	-54.6788	-54.6788	20.4892	20.4892	
1.69424	-0.453348	0.784387	0.0421093	25.3218	25.3218	-66.284	-66.284	40.9203	40.9203	-8.17869	-10.8425	3.51826	30.408	30.408	-54.2626	-54.2626	20.3379	20.3379	
1.70426	-0.454864	0.782457	0.0509091	25.6791	25.6791	-66.8649	-66.8649	41.1351	41.1351	-8.07145	-10.7849	3.21782	30.435	30.435	-53.8326	-53.8326	20.1813	20.1813	
1.71429	-0.456362	0.780538	0.0582644	26.0344	26.0344	-67.44	-67.44	41.3475	41.3475	-7.95873	-10.7072	2.86819	30.4981	30.4981	-53.3814	-53.3814	20.0167	20.0167	
1.72431	-0.457839	0.778632	0.0642547	26.3869	26.3869	-68.0084	-68.0084	41.5573	41.5573	-7.83994	-10.6093	2.47587	30.586	30.586	-52.9015	-52.9015	19.8412	19.8412	
1.73434	-0.459293	0.776742	0.0689593	26.7361	26.7361	-68.5691	-68.5691	41.7642	41.7642	-7.71452	-10.4913	2.04737	30.6878	30.6878	-52.3856	-52.3856	19.652	19.652	
1.74436	-0.460722	0.774874	0.0724576	27.0812	27.0812	-69.1211	-69.1211	41.9677	41.9677	-7.58191	-10.3532	1.58917	30.7923	30.7923	-51.8263	-51.8263	19.4465	19.4465	
1.75439	-0.462124	0.773031	0.074829	27.4215	27.4215	-69.6637	-69.6637	42.1675	42.1675	-7.44153	-10.195	1.10778	30.8883	30.8883	-51.2162	-51.2162	19.2216	19.2216	
1.76441	-0.463496	0.771216	0.0761529	27.7564	27.7564	-70.1957	-70.1957	42.3633	42.3633	-7.2928	-10.0166	0.609703	30.965	30.965	-50.5479	-50.5479	18.9748	18.9748	
1.77444	-0.464836	0.769433	0.0765088	28.0852	28.0852	-70.7164	-70.7164	42.5548	42.5548	-7.13516	-9.81799	0.101426	31.011	31.011	-49.814	-49.814	18.7031	18.7031	
1.78446	-0.466143	0.767686	0.075976	28.4072	28.4072	-71.2246	-71.2246	42.7417	42.7417	-6.96804	-9.59924	-0.410549	31.0154	31.0154	-49.0072	-49.0072	18.4038	18.4038	
1.79449	-0.467413	0.765979	0.0746339	28.7217	28.7217	-71.7197	-71.7197	42.9235	42.9235	-6.79087	-9.36031	-0.919722	30.9669	30.9669	-48.1199	-48.1199	18.0741	18.0741	
1.80451	-0.468645	0.764315	0.0725619	29.028	29.028	-72.2004	-72.2004	43.1	43.1	-6.60307	-9.10118	-1.4196	30.8546	30.8546	-47.1449	-47.1449	17.7112	17.7112	
1.81454	-0.469837	0.762699	0.0698393	29.3255	29.3255	-72.6661	-72.6661	43.2709	43.2709	-6.40408	-8.82186	-1.90367	30.6674	30.6674	-46.0748	-46.0748	17.3123	17.3123	
